<?xml version="1.0" encoding="UTF-8"?>
<svg xmlns="http://www.w3.org/2000/svg" xmlns:xlink="http://www.w3.org/1999/xlink" viewBox="0 0 50 50" width="50px" height="50px">
<g id="surface157193737">
<path style=" stroke:none;fill-rule:nonzero;fill:rgb(100%,100%,100%);fill-opacity:1;" d="M 25 2 C 12.316406 2 2 12.316406 2 25 C 2 37.683594 12.316406 48 25 48 C 37.683594 48 48 37.683594 48 25 C 48 12.316406 37.683594 2 25 2 Z M 34.972656 29.535156 C 37.210938 31.519531 37.675781 32.230469 37.75 32.351562 C 38.679688 33.820312 36.722656 34 36.722656 34 L 32.601562 34 C 32.601562 34 31.601562 34.011719 30.742188 33.441406 C 29.347656 32.527344 27.882812 30.753906 26.855469 31.0625 C 25.992188 31.320312 26 32.484375 26 33.484375 C 26 33.839844 25.691406 34 25 34 C 24.308594 34 24.019531 34 23.710938 34 C 21.453125 34 19.007812 33.238281 16.5625 30.6875 C 13.105469 27.078125 10.074219 19.808594 10.074219 19.808594 C 10.074219 19.808594 9.898438 19.441406 10.09375 19.21875 C 10.3125 18.96875 10.914062 19 10.914062 19 L 14.910156 19 C 14.910156 19 15.285156 19.070312 15.554688 19.261719 C 15.777344 19.417969 15.902344 19.714844 15.902344 19.714844 C 15.902344 19.714844 16.574219 21.929688 17.429688 23.34375 C 19.097656 26.101562 19.875 26.171875 20.441406 25.875 C 21.269531 25.445312 21 22.511719 21 22.511719 C 21 22.511719 21.035156 21.253906 20.605469 20.691406 C 20.273438 20.257812 19.636719 20.027344 19.355469 19.992188 C 19.132812 19.964844 19.507812 19.570312 19.988281 19.34375 C 20.628906 19.058594 21.496094 18.984375 23 19 C 24.167969 19.011719 24.507812 19.082031 24.960938 19.1875 C 26.339844 19.503906 26 20.34375 26 23.289062 C 26 24.234375 25.871094 25.558594 26.582031 26 C 26.890625 26.191406 27.941406 26.421875 29.8125 23.382812 C 30.703125 21.941406 31.410156 19.546875 31.410156 19.546875 C 31.410156 19.546875 31.554688 19.285156 31.78125 19.15625 C 32.015625 19.023438 32.007812 19.023438 32.324219 19.023438 C 32.644531 19.023438 35.832031 19 36.53125 19 C 37.230469 19 37.886719 18.992188 38 19.402344 C 38.160156 19.992188 37.484375 22.007812 35.765625 24.199219 C 32.941406 27.792969 32.628906 27.457031 34.972656 29.535156 Z M 34.972656 29.535156 "/>
</g>
</svg>
