<?xml version="1.0" encoding="UTF-8"?>
<svg xmlns="http://www.w3.org/2000/svg" xmlns:xlink="http://www.w3.org/1999/xlink" viewBox="0 0 64 64" width="64px" height="64px">
<g id="surface156732704">
<path style=" stroke:none;fill-rule:nonzero;fill:rgb(100%,100%,100%);fill-opacity:1;" d="M 32 10.667969 C 43.78125 10.667969 53.332031 20.21875 53.332031 32 C 53.332031 43.78125 43.78125 53.332031 32 53.332031 C 20.21875 53.332031 10.667969 43.78125 10.667969 32 C 10.667969 20.21875 20.21875 10.667969 32 10.667969 Z M 39.359375 40.695312 C 39.75 39.492188 41.589844 27.492188 41.816406 25.128906 C 41.886719 24.414062 41.660156 23.9375 41.214844 23.722656 C 40.679688 23.464844 39.886719 23.59375 38.964844 23.929688 C 37.703125 24.382812 21.550781 31.242188 20.617188 31.636719 C 19.734375 32.011719 18.894531 32.421875 18.894531 33.015625 C 18.894531 33.433594 19.144531 33.667969 19.828125 33.914062 C 20.535156 34.167969 22.328125 34.707031 23.382812 35 C 24.402344 35.28125 25.558594 35.039062 26.207031 34.632812 C 26.894531 34.207031 34.839844 28.890625 35.410156 28.425781 C 35.980469 27.960938 36.433594 28.554688 35.96875 29.023438 C 35.5 29.488281 30.050781 34.78125 29.332031 35.511719 C 28.457031 36.402344 29.078125 37.324219 29.664062 37.691406 C 30.332031 38.113281 35.140625 41.339844 35.867188 41.859375 C 36.589844 42.375 37.324219 42.609375 37.996094 42.609375 C 38.671875 42.609375 39.023438 41.722656 39.359375 40.695312 Z M 39.359375 40.695312 "/>
</g>
</svg>
