<?xml version="1.0" encoding="UTF-8"?>
<svg xmlns="http://www.w3.org/2000/svg" xmlns:xlink="http://www.w3.org/1999/xlink" viewBox="0 0 48 48" width="48px" height="48px">
<g id="surface157177613">
<path style=" stroke:none;fill-rule:nonzero;fill:rgb(100%,100%,100%);fill-opacity:1;" d="M 24 4 C 13 4 4 13 4 24 C 4 35 13 44 24 44 C 35 44 44 35 44 24 C 44 13 35 4 24 4 Z M 24 4 "/>
<path style=" stroke:none;fill-rule:nonzero;fill:rgb(100%,100%,100%);fill-opacity:1;" d="M 25.199219 33.199219 C 16.199219 33.199219 11.101562 27.101562 10.898438 16.800781 L 15.398438 16.800781 C 15.5 24.300781 18.898438 27.5 21.5 28.101562 L 21.5 16.800781 L 25.699219 16.800781 L 25.699219 23.300781 C 28.300781 23 31 20.101562 31.898438 16.800781 L 36.101562 16.800781 C 35.398438 20.800781 32.398438 23.800781 30.300781 25 C 32.398438 26 35.800781 28.601562 37 33.199219 L 32.300781 33.199219 C 31.300781 30.101562 28.800781 27.699219 25.5 27.300781 L 25.5 33.199219 Z M 25.199219 33.199219 "/>
</g>
</svg>
