<?xml version="1.0" encoding="UTF-8"?>
<svg xmlns="http://www.w3.org/2000/svg" xmlns:xlink="http://www.w3.org/1999/xlink" viewBox="0 0 30 30" width="30px" height="30px">
<g id="surface156848811">
<path style=" stroke:none;fill-rule:nonzero;fill:rgb(100%,100%,100%);fill-opacity:1;" d="M 15 3 C 8.371094 3 3 8.371094 3 15 C 3 21.628906 8.371094 27 15 27 C 21.628906 27 27 21.628906 27 15 C 27 8.371094 21.628906 3 15 3 Z M 21.464844 12.535156 C 21.46875 12.667969 21.472656 12.800781 21.472656 12.933594 C 21.472656 17 18.378906 21.6875 12.71875 21.6875 C 10.976562 21.6875 9.359375 21.179688 8 20.304688 C 8.242188 20.335938 8.484375 20.347656 8.734375 20.347656 C 10.179688 20.347656 11.503906 19.855469 12.554688 19.027344 C 11.210938 19.003906 10.070312 18.113281 9.679688 16.890625 C 9.867188 16.929688 10.0625 16.945312 10.261719 16.945312 C 10.539062 16.945312 10.8125 16.910156 11.070312 16.839844 C 9.664062 16.558594 8.601562 15.3125 8.601562 13.820312 C 8.601562 13.808594 8.601562 13.796875 8.601562 13.78125 C 9.015625 14.015625 9.492188 14.152344 9.996094 14.167969 C 9.171875 13.617188 8.628906 12.675781 8.628906 11.605469 C 8.628906 11.042969 8.777344 10.511719 9.042969 10.058594 C 10.5625 11.921875 12.828125 13.148438 15.386719 13.277344 C 15.335938 13.050781 15.308594 12.816406 15.308594 12.574219 C 15.308594 10.875 16.683594 9.496094 18.382812 9.496094 C 19.269531 9.496094 20.070312 9.871094 20.628906 10.46875 C 21.332031 10.328125 21.988281 10.074219 22.585938 9.722656 C 22.355469 10.441406 21.867188 11.042969 21.230469 11.425781 C 21.851562 11.351562 22.445312 11.1875 23 10.941406 C 22.589844 11.558594 22.066406 12.101562 21.464844 12.535156 Z M 21.464844 12.535156 "/>
</g>
</svg>
